<svg width="100" height="100" viewBox="0 0 100 100" fill="none" xmlns="http://www.w3.org/2000/svg">
<g clip-path="url(#clip0_226_47)">
<path d="M76.184 55.875C81.4977 55.875 85.821 60.1979 85.821 65.5122C85.821 70.8261 81.4977 75.1492 76.184 75.1492C70.8702 75.1492 66.5468 70.8261 66.5468 65.5122C66.5468 60.1979 70.8702 55.875 76.184 55.875ZM76.184 70.5713C78.9735 70.5713 81.2432 68.3019 81.2432 65.5122C81.2432 62.7225 78.9735 60.4527 76.184 60.4527C73.3944 60.4527 71.1247 62.7221 71.1247 65.5122C71.1245 68.3019 73.3942 70.5713 76.184 70.5713Z" fill="black"/>
<path d="M0.000220881 53.2601L0.688766 30.9266L0.702589 30.7457C0.953627 28.7067 2.45965 24.8506 6.36115 24.8506C8.00764 24.8506 53.3233 24.8962 53.5494 24.8943C57.0392 24.8685 62.2241 24.8857 65.9864 30.648C74.1118 43.0922 73.4453 42.0763 74.1118 43.0922C83.1487 43.1219 89.3743 43.1419 90.1761 43.1419C101.569 43.1419 105.154 64.9805 89.4327 64.9805C88.777 64.9805 88.9348 65.0114 87.7883 65.0325C87.5354 58.849 82.4284 53.8961 76.1842 53.8961C69.9333 53.8961 64.8224 58.8595 64.5792 65.0519C54.397 65.0519 36.2488 65.0519 32.8408 65.0519C32.665 58.7617 27.498 53.6978 21.1664 53.6978C14.8455 53.6978 9.68486 58.744 9.49282 65.0185C1.66197 64.5213 -0.0688817 58.6198 0.0064089 53.2611L0.000220881 53.2601ZM53.5461 50.4183H57.7275C58.2708 50.4183 58.7112 49.9779 58.7112 49.4341C58.7112 48.8908 58.2708 48.4502 57.7275 48.4502H53.5461C53.0028 48.4502 52.5622 48.8906 52.5622 49.4341C52.5624 49.9779 53.003 50.4183 53.5461 50.4183ZM51.3076 43.0167C57.5701 43.0377 63.9088 43.0581 69.3879 43.0765C69.3879 43.0765 69.3879 43.0765 62.6377 32.7598C60.0766 28.8455 56.8071 28.828 53.5797 28.8534C53.3433 28.8552 52.0964 28.8567 51.3074 28.8558L51.3076 43.0167ZM34.1125 42.9583C38.7149 42.974 43.5199 42.9903 48.2997 43.0064V28.8527C44.7631 28.8492 39.6105 28.8437 34.1125 28.8377V42.9583ZM16.7585 42.8993C20.9508 42.9135 25.8546 42.9304 31.1047 42.9482V28.8346C31.0371 28.8346 30.9696 28.8346 30.902 28.8344C25.9701 28.829 20.9648 28.8237 16.7589 28.8191L16.7585 42.8993ZM13.7506 42.889V28.816C9.8864 28.8119 7.10394 28.8094 6.36135 28.8094C5.12493 28.8094 4.7095 30.795 4.64246 31.1692L4.2823 42.8564C5.97232 42.8622 9.31976 42.8737 13.7506 42.889Z" fill="black"/>
<path d="M21.1662 55.7432C26.4799 55.7432 30.8032 60.0659 30.8032 65.3802C30.8032 70.6942 26.4799 75.0172 21.1662 75.0172C15.8517 75.0172 11.5288 70.6942 11.5288 65.3802C11.529 60.0659 15.8519 55.7432 21.1662 55.7432ZM21.1662 70.4393C23.9557 70.4393 26.2256 68.1696 26.2256 65.3802C26.2256 62.5905 23.9557 60.3206 21.1662 60.3206C18.3766 60.3206 16.1069 62.5903 16.1069 65.3802C16.1069 68.1698 18.3763 70.4393 21.1662 70.4393Z" fill="black"/>
</g>
<defs>
<clipPath id="clip0_226_47">
<rect width="100" height="100" fill="white" transform="matrix(-1 0 0 1 100 0)"/>
</clipPath>
</defs>
</svg>
