<svg width="104" height="100" viewBox="0 0 104 100" fill="none" xmlns="http://www.w3.org/2000/svg">
<g clip-path="url(#clip0_226_47)">
<path d="M24.7686 55.875C19.2424 55.875 14.7461 60.1979 14.7461 65.5122C14.7461 70.8261 19.2424 75.1492 24.7686 75.1492C30.295 75.1492 34.7913 70.8261 34.7913 65.5122C34.7913 60.1979 30.295 55.875 24.7686 55.875ZM24.7686 70.5713C21.8675 70.5713 19.5071 68.3019 19.5071 65.5122C19.5071 62.7225 21.8675 60.4527 24.7686 60.4527C27.6698 60.4527 30.0303 62.7221 30.0303 65.5122C30.0305 68.3019 27.67 70.5713 24.7686 70.5713Z" fill="black"/>
<path d="M104 53.2601L103.284 30.9266L103.269 30.7457C103.008 28.7067 101.442 24.8506 97.3844 24.8506C95.6721 24.8506 48.5438 24.8962 48.3086 24.8943C44.6793 24.8685 39.2869 24.8857 35.3742 30.648C26.9237 43.0922 27.6169 42.0763 26.9237 43.0922C17.5253 43.1219 11.0507 43.1419 10.2168 43.1419C-1.63213 43.1419 -5.3606 64.9805 10.99 64.9805C11.672 64.9805 11.5079 65.0114 12.7002 65.0325C12.9632 58.849 18.2745 53.8961 24.7684 53.8961C31.2694 53.8961 36.5847 58.8595 36.8377 65.0519C47.4271 65.0519 66.3012 65.0519 69.8456 65.0519C70.0284 58.7617 75.4021 53.6978 81.987 53.6978C88.5607 53.6978 93.9278 58.744 94.1275 65.0185C102.272 64.5213 104.072 58.6198 103.993 53.2611L104 53.2601ZM48.3121 50.4183H43.9634C43.3983 50.4183 42.9403 49.9779 42.9403 49.4341C42.9403 48.8908 43.3983 48.4502 43.9634 48.4502H48.3121C48.8771 48.4502 49.3354 48.8906 49.3354 49.4341C49.3351 49.9779 48.8769 50.4183 48.3121 50.4183ZM50.6401 43.0167C44.1271 43.0377 37.5349 43.0581 31.8366 43.0765C31.8366 43.0765 31.8366 43.0765 38.8568 32.7598C41.5204 28.8455 44.9206 28.828 48.2771 28.8534C48.5229 28.8552 49.8198 28.8567 50.6403 28.8558L50.6401 43.0167ZM68.5231 42.9583C63.7365 42.974 58.7394 42.9903 53.7683 43.0064V28.8527C57.4464 28.8492 62.8051 28.8437 68.5231 28.8377V42.9583ZM86.5712 42.8993C82.2112 42.9135 77.1112 42.9304 71.6511 42.9482V28.8346C71.7214 28.8346 71.7916 28.8346 71.862 28.8344C76.9911 28.829 82.1966 28.8237 86.5708 28.8191L86.5712 42.8993ZM89.6994 42.889V28.816C93.7181 28.8119 96.6119 28.8094 97.3842 28.8094C98.6701 28.8094 99.1021 30.795 99.1718 31.1692L99.5464 42.8564C97.7888 42.8622 94.3075 42.8737 89.6994 42.889Z" fill="black"/>
<path d="M81.9871 55.7432C76.4609 55.7432 71.9646 60.0659 71.9646 65.3802C71.9646 70.6942 76.4609 75.0172 81.9871 75.0172C87.5141 75.0172 92.01 70.6942 92.01 65.3802C92.0098 60.0659 87.5139 55.7432 81.9871 55.7432ZM81.9871 70.4393C79.086 70.4393 76.7254 68.1696 76.7254 65.3802C76.7254 62.5905 79.086 60.3206 81.9871 60.3206C84.8883 60.3206 87.2488 62.5903 87.2488 65.3802C87.2488 68.1698 84.8885 70.4393 81.9871 70.4393Z" fill="black"/>
</g>
<defs>
<clipPath id="clip0_226_47">
<rect width="104" height="100" fill="white"/>
</clipPath>
</defs>
</svg>
