<svg width="50" height="50" viewBox="0 0 50 50" fill="none" xmlns="http://www.w3.org/2000/svg">
<path d="M26.2914 49.9723C11.7944 49.9723 0 38.1774 0 23.6809C0 13.6404 5.58931 4.61878 14.5878 0.137928C14.993 -0.0628937 15.4799 0.0151086 15.7984 0.333618C16.1172 0.65247 16.1995 1.13947 16.0007 1.54368C14.3588 4.87965 13.5267 8.46656 13.5267 12.2014C13.5267 25.5391 24.3773 36.3902 37.7134 36.3902C41.4904 36.3902 45.1112 35.5387 48.4802 33.8625C48.8849 33.6611 49.3719 33.7391 49.6902 34.0576C50.0106 34.377 50.0908 34.864 49.8916 35.2675C45.4346 44.3372 36.3905 49.9723 26.2914 49.9723Z" fill="#FACF35"/>
</svg>
