<svg width="48" height="48" viewBox="0 0 48 48" fill="none" xmlns="http://www.w3.org/2000/svg">
<g clip-path="url(#clip0_209_53)">
<mask id="mask0_209_53" style="mask-type:luminance" maskUnits="userSpaceOnUse" x="0" y="0" width="48" height="48">
<path d="M0 0H47.5V47.5H0V0Z" fill="white"/>
</mask>
<g mask="url(#mask0_209_53)">
<path d="M21.25 3.75C21.25 3.75 21.25 1.25 23.75 1.25C26.25 1.25 26.25 3.75 26.25 3.75V6.25C26.25 6.25 26.25 8.75 23.75 8.75C21.25 8.75 21.25 6.25 21.25 6.25V3.75ZM43.75 21.25C43.75 21.25 46.25 21.25 46.25 23.75C46.25 26.25 43.75 26.25 43.75 26.25H41.25C41.25 26.25 38.75 26.25 38.75 23.75C38.75 21.25 41.25 21.25 41.25 21.25H43.75ZM6.25 21.25C6.25 21.25 8.75 21.25 8.75 23.75C8.75 26.25 6.25 26.25 6.25 26.25H3.75C3.75 26.25 1.25 26.25 1.25 23.75C1.25 21.25 3.75 21.25 3.75 21.25H6.25ZM12.6513 10.3675C12.6513 10.3675 14.4188 12.135 12.6513 13.9025C10.8838 15.67 9.11625 13.9025 9.11625 13.9025L7.3475 12.135C7.3475 12.135 5.58 10.3675 7.3475 8.59875C9.11625 6.83125 10.8837 8.59875 10.8837 8.59875L12.6513 10.3675ZM38.9013 36.6163C38.9013 36.6163 40.6688 38.3837 38.9013 40.1512C37.1338 41.9187 35.3662 40.1512 35.3662 40.1512L33.5987 38.3837C33.5987 38.3837 31.8312 36.6162 33.5987 34.8487C35.3662 33.0812 37.1338 34.8487 37.1338 34.8487L38.9013 36.6163ZM38.385 13.9013C38.385 13.9013 36.6175 15.6688 34.85 13.9013C33.0825 12.1338 34.85 10.3662 34.85 10.3662L36.6175 8.59875C36.6175 8.59875 38.385 6.83125 40.1525 8.59875C41.92 10.3662 40.1525 12.1338 40.1525 12.1338L38.385 13.9013ZM12.135 40.1512C12.135 40.1512 10.3675 41.9187 8.6 40.1512C6.8325 38.3837 8.6 36.6163 8.6 36.6163L10.3675 34.8487C10.3675 34.8487 12.135 33.0812 13.9025 34.8487C15.67 36.6162 13.9025 38.3837 13.9025 38.3837L12.135 40.1512ZM21.25 41.25C21.25 41.25 21.25 38.75 23.75 38.75C26.25 38.75 26.25 41.25 26.25 41.25V43.75C26.25 43.75 26.25 46.25 23.75 46.25C21.25 46.25 21.25 43.75 21.25 43.75V41.25ZM36.25 23.75C36.25 16.8463 30.6525 11.25 23.75 11.25C16.8463 11.25 11.25 16.8463 11.25 23.75C11.25 30.6525 16.8463 36.25 23.75 36.25C30.6525 36.25 36.25 30.6525 36.25 23.75Z" fill="#FACF35"/>
</g>
</g>
<defs>
<clipPath id="clip0_209_53">
<rect width="47.5" height="47.5" fill="white"/>
</clipPath>
</defs>
</svg>
