<svg width="20" height="20" viewBox="0 0 20 20" fill="none" xmlns="http://www.w3.org/2000/svg">
<g clip-path="url(#clip0_202_18)">
<rect x="4" y="6" width="12" height="10" fill="white"/>
<path d="M9.99941 0.399414C4.69741 0.399414 0.399414 4.69741 0.399414 9.99941C0.399414 15.3014 4.69741 19.5994 9.99941 19.5994C15.3014 19.5994 19.5994 15.3014 19.5994 9.99941C19.5994 4.69741 15.3014 0.399414 9.99941 0.399414ZM6.23041 6.99941H13.7504C14.1494 6.99941 13.9434 7.51141 13.7264 7.64241C13.5094 7.77241 10.5064 9.58941 10.3934 9.65641C10.2804 9.72341 10.1364 9.75641 9.99041 9.75641C9.84992 9.75929 9.71119 9.72477 9.58841 9.65641L6.25441 7.64241C6.03741 7.51141 5.83241 6.99941 6.23041 6.99941ZM13.9994 12.4994C13.9994 12.7094 13.7474 12.9994 13.5554 12.9994H6.44341C6.25141 12.9994 5.99941 12.7094 5.99941 12.4994V8.85241C5.99941 8.76041 5.99741 8.64141 6.17141 8.74241L9.58841 10.7574C9.70901 10.8311 9.84933 10.866 9.99041 10.8574C10.1364 10.8574 10.2424 10.8464 10.3934 10.7574L13.8274 8.74341C14.0014 8.64141 13.9994 8.76141 13.9994 8.85341V12.4994Z" fill="#8FE700"/>
</g>
<defs>
<clipPath id="clip0_202_18">
<rect width="20" height="20" fill="white"/>
</clipPath>
</defs>
</svg>
